<?xml version="1.0" encoding="UTF-8"?>
<svg width="20px" height="20px" viewBox="0 0 20 20" version="1.1" xmlns="http://www.w3.org/2000/svg" xmlns:xlink="http://www.w3.org/1999/xlink">
    <!-- Generator: sketchtool 42 (36781) - http://www.bohemiancoding.com/sketch -->
    <title>2523D798-36DC-48C6-8E66-BDE6A3A64587</title>
    <desc>Created with sketchtool.</desc>
    <defs>
        <path d="M10,20 C4.4771525,20 0,15.5228475 0,10 C0,4.4771525 4.4771525,0 10,0 C15.5228475,0 20,4.4771525 20,10 C20,15.5228475 15.5228475,20 10,20 Z" id="path-1"></path>
        <mask id="mask-2" maskContentUnits="userSpaceOnUse" maskUnits="objectBoundingBox" x="0" y="0" width="20" height="20" fill="white">
            <use xlink:href="#path-1"></use>
        </mask>
    </defs>
    <g id="Player" stroke="none" stroke-width="1" fill="none" fill-rule="evenodd">
        <g id="D-Library" transform="translate(-170.000000, -316.000000)">
            <g id="Track" transform="translate(170.000000, 296.000000)">
                <g id="songinfo" transform="translate(0.000000, 20.000000)">
                    <g id="play">
                        <use stroke="#D6D6D7" mask="url(#mask-2)" stroke-width="4" fill-rule="nonzero" xlink:href="#path-1"></use>
                        <path d="M13.3751749,9.34026486 C14.0760262,9.70447 14.071617,10.2972545 13.3751749,10.6591684 L8.76900371,13.0528157 C8.06815236,13.4170209 7.5,13.0792075 7.5,12.2806331 L7.5,7.7188 C7.5,6.92813024 8.07256157,6.58470365 8.76900371,6.94661746 L13.3751749,9.34026486 Z" id="Path" fill="#D8D8D8"></path>
                    </g>
                </g>
            </g>
        </g>
    </g>
</svg>