<?xml version="1.0" encoding="UTF-8"?>
<svg width="10px" height="10px" viewBox="0 0 10 10" version="1.1" xmlns="http://www.w3.org/2000/svg" xmlns:xlink="http://www.w3.org/1999/xlink">
    <!-- Generator: sketchtool 42 (36781) - http://www.bohemiancoding.com/sketch -->
    <title>7EE9EC66-0A25-4811-BD28-F8B6ED063DDD</title>
    <desc>Created with sketchtool.</desc>
    <defs></defs>
    <g id="Player" stroke="none" stroke-width="1" fill="none" fill-rule="evenodd">
        <g id="D-Library" transform="translate(-970.000000, -261.000000)" fill-rule="nonzero" fill="#F4F4F4">
            <g id="Track" transform="translate(170.000000, 236.000000)">
                <g id="Rating" transform="translate(800.000000, 25.000000)">
                    <g id="star-monochrome-full">
                        <path d="M7.84816309,6.34102625 C7.78984168,6.38166945 7.77059562,6.46295584 7.78984168,6.52392063 L8.31473434,9.26733619 C8.40610455,9.83938913 7.82464012,10.1594543 7.43991324,9.91742407 L5.08761649,8.5560803 C5.02929508,8.51543711 4.9515332,8.51543711 4.8932118,8.5560803 L2.54091504,9.91762728 C2.12372258,10.1795727 1.60446765,9.77720505 1.68553441,9.2675394 L2.21042707,6.50359903 C2.22986754,6.44263424 2.21042707,6.36134785 2.15210566,6.32090787 L0.188618291,4.41067778 C-0.185999547,4.06297526 0.035427395,3.43828938 0.519106264,3.35395475 L3.18245052,3.00848761 C3.24077193,3.00848761 3.29909334,2.94752281 3.33797427,2.88655802 L4.46552148,0.346358432 C4.66517509,-0.11311287 5.29329665,-0.117786838 5.5151124,0.346358432 L6.64285401,2.88635481 C6.66229448,2.9473196 6.72042148,2.98796279 6.79837776,3.00828439 L9.48116249,3.37407313 C9.93917994,3.41390346 10.199099,4.07029103 9.81165046,4.43079616 L7.84816309,6.34102625 Z" id="Shape"></path>
                    </g>
                </g>
            </g>
        </g>
    </g>
</svg>