<?xml version="1.0" encoding="UTF-8"?>
<svg width="15px" height="15px" viewBox="0 0 15 15" version="1.1" xmlns="http://www.w3.org/2000/svg" xmlns:xlink="http://www.w3.org/1999/xlink">
    <!-- Generator: sketchtool 42 (36781) - http://www.bohemiancoding.com/sketch -->
    <title>CA0DAEF5-A024-47F6-9F19-62C966D049EE</title>
    <desc>Created with sketchtool.</desc>
    <defs></defs>
    <g id="Player" stroke="none" stroke-width="1" fill="none" fill-rule="evenodd">
        <g id="D-Queue" transform="translate(-553.000000, -256.000000)" fill-rule="nonzero" fill="#5F6062">
            <g id="Rating" transform="translate(400.000000, 255.000000)">
                <g id="Group">
                    <g id="star-dimmed" transform="translate(153.000000, 1.000000)">
                        <path d="M11.7722446,9.51153938 C11.6847625,9.57250417 11.6558934,9.69443375 11.6847625,9.78588094 L12.4721015,13.9010043 C12.6091568,14.7590837 11.7369602,15.2391814 11.1598699,14.8761361 L7.63142473,12.8341204 C7.54394262,12.7731557 7.4272998,12.7731557 7.33981769,12.8341204 L3.81137256,14.8764409 C3.18558387,15.269359 2.40670148,14.6658076 2.52830161,13.9013091 L3.3156406,9.75539854 C3.34480131,9.66395136 3.3156406,9.54202178 3.22815849,9.48136181 L0.282927436,6.61601667 C-0.278999321,6.09446289 0.0531410924,5.15743406 0.778659397,5.03093212 L4.77367578,4.51273141 C4.86115789,4.51273141 4.94864,4.42128422 5.00696141,4.32983704 L6.69828222,0.519537648 C6.99776264,-0.169669306 7.93994497,-0.176680257 8.2726686,0.519537648 L9.96428101,4.32953221 C9.99344172,4.4209794 10.0806322,4.48194419 10.1975666,4.51242658 L14.2217437,5.0611097 C14.9087699,5.12085519 15.2986485,6.10543655 14.7174757,6.64619424 L11.7722446,9.51153938 Z" id="Shape"></path>
                    </g>
                </g>
            </g>
        </g>
    </g>
</svg>